<?xml version="1.0" encoding="UTF-8"?>
<!-- Created with Inkscape (http://www.inkscape.org/) -->
<svg width="150.76mm" height="31.313mm" version="1.1" viewBox="0 0 150.76 31.313" xmlns="http://www.w3.org/2000/svg" xmlns:xlink="http://www.w3.org/1999/xlink" id="img">
 <defs>
  <linearGradient id="linearGradient7362">
   <stop stop-color="#ab7cab" offset="0"/>
   <stop stop-color="#8c548c" offset=".44617"/>
   <stop stop-color="#020202" offset="1"/>
  </linearGradient>
  <linearGradient id="linearGradient994">
   <stop stop-color="#bf96bf" offset="0"/>
   <stop stop-color="#a870a8" offset=".44617"/>
   <stop stop-color="#020202" offset="1"/>
  </linearGradient>
  <radialGradient id="radialGradient996" cx="67.854" cy="143.02" r="11.015" gradientTransform="matrix(-.39179 1.9334 -1.8523 -.37536 321.33 63.8)" gradientUnits="userSpaceOnUse" xlink:href="#linearGradient994"/>
  <radialGradient id="radialGradient6812" cx="68.725" cy="141.3" r="11.015" gradientTransform="matrix(2.3311 0 -1.7476e-7 4.1613 -130.08 -441)" gradientUnits="userSpaceOnUse" xlink:href="#linearGradient7362"/>
 </defs>
 <g transform="translate(-29.927 -132.4)">
  <g>
   <path transform="matrix(.26458 0 0 .26458 29.927 132.4)" d="m197.92 28.779c-4.8907 0-8.6985 1.102-11.424 3.3047-2.688 2.1653-4.0312 5.2456-4.0312 9.2402 0 3.1733 0.87619 5.5993 2.6309 7.2793 1.7547 1.68 4.7036 2.9113 8.8476 3.6953l5.7129 1.1211c2.8 0.52267 4.7782 1.231 5.9356 2.127s1.7363 2.1659 1.7363 3.8086c0 1.7173-0.7469 3.0606-2.2402 4.0312-1.456 0.97067-3.4535 1.457-5.9922 1.457-2.8373 0-5.0394-0.579-6.6074-1.7363-1.568-1.1573-2.4268-2.8364-2.5762-5.0391h-8.1758c0.26134 4.368 1.8285 7.7088 4.7031 10.023 2.912 2.3147 6.9823 3.4707 12.209 3.4707 5.264 0 9.371-1.156 12.32-3.4707 2.9493-2.352 4.4238-5.6001 4.4238-9.7441 0-3.2107-0.85884-5.6926-2.5762-7.4473-1.7173-1.792-4.4618-3.0619-8.2324-3.8086l-6.3848-1.2324c-2.9867-0.59733-5.0208-1.2497-6.1035-1.959-1.0827-0.74667-1.623-1.868-1.623-3.3613 0-1.5307 0.63301-2.7427 1.9023-3.6387 1.2693-0.93333 2.987-1.4004 5.1524-1.4004 5.4133 0 8.2697 2.1268 8.5684 6.3828h7.8398c0-2.128-0.37247-3.9943-1.1191-5.5996-0.70933-1.6427-1.6068-2.9126-2.6894-3.8086-1.0827-0.93333-2.37-1.6783-3.8633-2.2383-1.4933-0.59733-2.9119-0.99107-4.2559-1.1777-1.3067-0.18667-2.6692-0.2793-4.0879-0.2793zm40.656 0c-5.7493 0-10.304 1.9222-13.664 5.7676s-5.041 9.0717-5.041 15.68c0 6.5707 1.6617 11.78 4.9844 15.625 3.3227 3.808 7.8214 5.7109 13.496 5.7109 5.0773 0 9.1843-1.3626 12.32-4.0879 3.136-2.7627 4.8344-6.4759 5.0957-11.143h-8.1758c-0.26133 2.6133-1.1761 4.6282-2.7441 6.0469-1.568 1.4187-3.6582 2.1289-6.2715 2.1289-3.248 1e-6 -5.7879-1.2506-7.6172-3.752-1.792-2.5013-2.6875-5.9733-2.6875-10.416 0-4.5173 0.93411-8.0453 2.8008-10.584 1.8667-2.5387 4.4605-3.8086 7.7832-3.8086 4.7787 0 7.691 2.4453 8.7363 7.3359h8.0078c-0.37333-4.5173-2.1084-8.0646-5.207-10.641-3.0613-2.576-7.0004-3.8633-11.816-3.8633zm-91.84 0.67188v40.824h30.52v-7h-22.119v-10.584h19.543v-7h-19.543v-9.2402h21.111v-7h-29.512zm115.75 0v40.824h8.4004v-18.535h16.184v18.535h8.4004v-40.824h-8.457v15.289h-16.127v-15.289h-8.4004zm41.943 0v40.824h30.52v-7h-22.119v-10.584h19.543v-7h-19.543v-9.2402h21.111v-7h-29.512zm37.24 0v40.824h8.4004v-16.184h9.6309c1.8293 0 3.1552 0.39178 3.9766 1.1758 0.82133 0.74667 1.2324 1.978 1.2324 3.6953 0 0.48533-0.0193 1.045-0.05664 1.6797-0.03733 0.63467-0.05664 1.5128-0.05664 2.6328 0 1.904 0.07528 3.3032 0.22461 4.1992 0.18667 0.896 0.54179 1.8301 1.0644 2.8008h9.0156v-1.5117c-1.1947-0.672-1.791-1.7914-1.791-3.3594-0.03733-2.2773-0.07594-3.995-0.11328-5.1523-0.03733-1.1573-0.14927-2.3346-0.33593-3.5293-0.14934-1.1947-0.31724-2.0149-0.50391-2.4629-0.14933-0.448-0.48515-0.95172-1.0078-1.5117-0.48534-0.56-0.96975-0.95178-1.4551-1.1758-0.48534-0.26133-1.2322-0.5991-2.2402-1.0098 4.592-1.792 6.8867-5.1501 6.8867-10.078 0-1.2693-0.1679-2.4833-0.5039-3.6406-0.336-1.1947-0.89569-2.37-1.6797-3.5273-0.74667-1.1573-1.8854-2.0914-3.416-2.8008-1.4933-0.70933-3.2843-1.0645-5.375-1.0645h-21.896zm8.4004 7h10.135c2.016 0 3.5098 0.35512 4.4805 1.0645 0.97067 0.672 1.457 2.0539 1.457 4.1445 0 2.2027-0.50567 3.6579-1.5137 4.3672-0.97066 0.70933-2.4452 1.0645-4.4238 1.0645h-10.135v-10.641z" fill="currentColor" style="font-variant-caps:normal;font-variant-east-asian:normal;font-variant-ligatures:normal;font-variant-numeric:normal;shape-inside:url(#rect71404);white-space:pre"/>
   <path transform="matrix(.26458 0 0 .26458 29.927 132.4)" d="m398.4 28.285c-2.625 0-5.3229 0.65625-8.0938 1.9688-2.7708 1.349-5.1224 3.5729-7.0547 6.6719-1.9323 3.099-2.9076 7.1003-2.9258 12.004 0 2.6615 0.28256 5.0221 0.84766 7.082 1.0938 3.9922 2.9349 7.0911 5.5234 9.2969 3.4453 2.9349 7.2917 4.4023 11.539 4.4023 4.2474 0.018229 7.7565-1.2487 10.527-3.8008 2.7708-2.5521 4.4297-5.6328 4.9766-9.2422l-3.7188-0.54688c-0.38281 2.6615-1.6315 4.9583-3.7461 6.8906-2.1146 1.9323-4.8125 2.8984-8.0938 2.8984s-6.2891-1.2031-9.0234-3.6094c-3.3542-2.9896-5.0404-7.4466-5.0586-13.371 0.01823-5.9062 1.7409-10.345 5.168-13.316 2.7344-2.3698 5.6875-3.5547 8.8594-3.5547 3.1719 0 5.8516 0.9388 8.0391 2.8164s3.5182 4.0924 3.9922 6.6445l3.7188-0.65625c-0.58334-3.3177-2.3151-6.2435-5.1953-8.7773-2.8802-2.5339-6.3073-3.8008-10.281-3.8008zm71.559 0c-2.4974 0-4.9128 0.55599-7.2461 1.668-2.3151 1.112-4.2656 2.6159-5.8516 4.5117-1.5859 1.8776-2.7891 4.0651-3.6094 6.5625-0.82032 2.4792-1.2305 5.2773-1.2305 8.3945s0.73828 6.2708 2.2148 9.4609c1.4583 3.2083 3.2083 5.5417 5.25 7 2.0417 1.4401 3.9193 2.4427 5.6328 3.0078 1.7136 0.54688 3.7461 0.82031 6.0977 0.82031s4.6393-0.53776 6.8633-1.6133c2.2422-1.0755 4.1654-2.543 5.7695-4.4023 1.6042-1.8776 2.8438-4.0833 3.7188-6.6172 0.89323-2.5339 1.3398-5.4688 1.3398-8.8047 0-3.3359-0.70183-6.5625-2.1055-9.6797-1.4036-3.1172-3.0898-5.3594-5.0586-6.7266-1.9688-1.3672-3.8008-2.306-5.4961-2.8164-1.6771-0.51042-3.7734-0.76562-6.2891-0.76562zm68.688 0.65625v40.086h12.742c6.7812 0 11.776-2.4062 14.984-7.2188 2.2422-3.3177 3.3633-7.8477 3.3633-13.59s-1.7409-10.391-5.2227-13.945c-3.4818-3.5547-7.8568-5.332-13.125-5.332h-12.742zm-115.94 0.027344v40.059h24.117v-3.7734h-20.344v-36.285h-3.7734zm74.074 0v26.141c0 1.0026 0.10937 2.0508 0.32812 3.1445 0.78386 3.974 2.7617 6.9727 5.9336 8.9961 2.5885 1.6406 5.7786 2.4609 9.5703 2.4609 5.5964 0 9.707-1.6862 12.332-5.0586 2.0599-2.6432 3.0898-5.8242 3.0898-9.543v-26.141h-3.7734v26.141c0 1.7135-0.31901 3.3086-0.95703 4.7852-1.7318 4.0286-5.2956 6.043-10.691 6.043-4.2474 0-7.4193-1.2487-9.5156-3.7461-1.6771-2.0052-2.5247-4.3659-2.543-7.082v-26.141h-3.7734zm-26.688 3.0898c4.9948 0 8.75 1.6406 11.266 4.9219 2.5156 3.2812 3.7734 7.3008 3.7734 12.059 0 4.7578-1.3398 8.7409-4.0195 11.949-1.276 1.5312-2.7982 2.7435-4.5664 3.6367-1.75 0.875-4.3112 1.3125-7.6836 1.3125-3.3724 0-6.4531-1.8047-9.2422-5.4141-2.5703-3.3359-3.8555-7.2917-3.8555-11.867s1.2943-8.431 3.8828-11.566c1.276-1.5312 2.8346-2.7526 4.6758-3.6641 1.8412-0.91146 3.7643-1.3672 5.7695-1.3672zm72.324 0.65625h8.9687c4.1745 0 7.6471 1.4401 10.418 4.3203 2.7526 2.8802 4.1198 7.1549 4.1016 12.824 0 5.6693-1.8776 9.9076-5.6328 12.715-2.3698 1.7865-5.332 2.6797-8.8867 2.6797h-8.9687v-32.539z" fill="currentColor" style="font-variant-caps:normal;font-variant-east-asian:normal;font-variant-ligatures:normal;font-variant-numeric:normal;shape-inside:url(#rect71404-8);white-space:pre"/>
   <path transform="matrix(.26458 0 0 .26458 29.927 132.4)" d="m532.96 77.525-14.504 40.824h8.5684l2.7441-8.2305h15.289l2.6875 8.2305h8.623l-14.111-40.824h-9.2969zm28.449 0v40.824h8.4004v-40.824h-8.4004zm-23.969 9.6328 5.3203 15.961h-10.641l5.3203-15.961z" fill="#8c548b" style="shape-inside:url(#rect141157);white-space:pre"/>
   <g fill="url(#radialGradient996)">
    <path d="m35.816 156.46s-4.5988-2.8339-5.6428-9.1938c-0.74172-4.5187 1.5854-10.133 5.9486-12.667 3.1415-1.8242 8.2076-3.1417 11.938-0.97215 3.3003 1.9194 4.6207 4.6208 3.7424 6.9044-1.1021 2.8657-2.4034 3.8517-4.1872 5.3605-1.6428 1.3896-1.7178 0.73503-1.7178 0.73503s1.2389-0.0908 0.68882-1.3635c0 0-0.8554-0.98287-2.2551-1.2894s-4.5381 0.48889-6.3985 1.7768c-1.0233 0.70836-3.9679 3.0231-4.2454 6.1297-0.2775 3.1067 2.1287 4.579 2.1287 4.579z" fill="url(#radialGradient6812)"/>
   </g>
   <g transform="rotate(180 42.898 145.63)" fill="url(#radialGradient996)">
    <path d="m35.816 156.46s-4.5988-2.8339-5.6428-9.1938c-0.74172-4.5187 1.5854-10.133 5.9486-12.667 3.1415-1.8242 8.2076-3.1417 11.938-0.97215 3.3003 1.9194 4.6207 4.6208 3.7424 6.9044-1.1021 2.8657-2.4034 3.8517-4.1872 5.3605-1.6428 1.3896-1.7178 0.73503-1.7178 0.73503s1.2389-0.0908 0.68882-1.3635c0 0-0.8554-0.98287-2.2551-1.2894s-4.5381 0.48889-6.3985 1.7768c-1.0233 0.70836-3.9679 3.0231-4.2454 6.1297-0.2775 3.1067 2.1287 4.579 2.1287 4.579z" fill="url(#radialGradient6812)"/>
   </g>
  </g>
  <g fill-opacity="0" stroke="#fff">
   <ellipse cx="42.927" cy="145.65" rx="12.875" ry="13.125" stroke-width=".25"/>
   <ellipse transform="rotate(23.272)" cx="96.98" cy="116.84" rx="9.6749" ry="13.075" stroke-width=".25"/>
   <ellipse transform="rotate(39.895)" cx="126.35" cy="84.212" rx="5.6752" ry="12.625" stroke-width=".25"/>
   <ellipse transform="rotate(50.793)" cx="140" cy="58.805" rx="3.6336" ry="11.384" stroke-width=".25"/>
   <ellipse transform="rotate(63.084)" cx="149.3" cy="27.656" rx="2.6568" ry="8.6568" stroke-width=".25"/>
   <ellipse transform="rotate(78.143)" cx="151.36" cy="-12.085" rx="1.7755" ry="6.0005" stroke-width=".25"/>
   <ellipse transform="rotate(90)" cx="145.65" cy="-42.927" rx="1.6554" ry="3.8754" stroke-width=".25"/>
  </g>
 </g>
</svg>
