<?xml version="1.0" encoding="UTF-8" standalone="no"?>
<!-- Created with Inkscape (http://www.inkscape.org/) -->

<svg
   width="109.81794mm"
   height="297.27411mm"
   viewBox="0 0 109.81794 297.27411"
   version="1.1"
   id="svg5"
   inkscape:version="1.1.2 (0a00cf5339, 2022-02-04)"
   sodipodi:docname="escherwibble.svg"
   xmlns:inkscape="http://www.inkscape.org/namespaces/inkscape"
   xmlns:sodipodi="http://sodipodi.sourceforge.net/DTD/sodipodi-0.dtd"
   xmlns:xlink="http://www.w3.org/1999/xlink"
   xmlns="http://www.w3.org/2000/svg"
   xmlns:svg="http://www.w3.org/2000/svg">
  <sodipodi:namedview
     id="namedview7"
     pagecolor="#ffffff"
     bordercolor="#666666"
     borderopacity="1.0"
     inkscape:pageshadow="2"
     inkscape:pageopacity="0.0"
     inkscape:pagecheckerboard="0"
     inkscape:document-units="mm"
     showgrid="false"
     inkscape:snap-bbox="true"
     inkscape:bbox-paths="true"
     inkscape:zoom="0.8718611"
     inkscape:cx="326.31345"
     inkscape:cy="404.30752"
     inkscape:window-width="1920"
     inkscape:window-height="1082"
     inkscape:window-x="0"
     inkscape:window-y="27"
     inkscape:window-maximized="1"
     inkscape:current-layer="layer1"
     fit-margin-top="0"
     fit-margin-left="0"
     fit-margin-right="0"
     fit-margin-bottom="0" />
  <defs
     id="defs2">
    <linearGradient
       inkscape:collect="always"
       id="linearGradient3803">
      <stop
         style="stop-color:#0012af;stop-opacity:0.50196081"
         offset="0"
         id="stop3799" />
      <stop
         style="stop-color:#9203be;stop-opacity:1"
         offset="0.67162895"
         id="stop4127" />
      <stop
         style="stop-color:#d300c7;stop-opacity:1"
         offset="1"
         id="stop3801" />
    </linearGradient>
    <inkscape:path-effect
       effect="interpolate"
       id="path-effect1945"
       is_visible="true"
       lpeversion="1"
       trajectory="M 172.80314,146.57454 61.037481,141.4626"
       equidistant_spacing="true"
       steps="40" />
    <linearGradient
       inkscape:collect="always"
       xlink:href="#linearGradient3803"
       id="linearGradient3805"
       x1="31.521967"
       y1="155.80202"
       x2="130.85347"
       y2="156.63965"
       gradientUnits="userSpaceOnUse"
       gradientTransform="matrix(0.9999782,0,0,0.97216761,19.934819,-5.2366162)" />
  </defs>
  <g
     inkscape:label="Layer 1"
     inkscape:groupmode="layer"
     id="layer1"
     transform="translate(-31.48942,0.20601295)">
    <path
       id="path1403"
       style="fill:none;stroke:url(#linearGradient3805);stroke-width:0.257;stroke-linecap:butt;stroke-linejoin:miter;stroke-miterlimit:4;stroke-dasharray:none;stroke-opacity:1"
       d="M 161.03302,-5.2660295 C 136.41326,23.76783 150.91967,51.364205 155.48807,69.701541 c 0.7614,3.056222 1.24674,5.855249 1.22888,8.36087 -0.0641,8.983397 1.46005,16.121917 1.83352,23.617629 0.14939,2.99829 0.11467,6.05372 -0.27944,9.30724 -1.236,10.20365 0.72259,14.10559 1.57986,17.80319 0.64295,2.7732 0.6664,5.43146 -1.74199,10.5471 -4.15005,8.8151 -5.8359,16.12592 -6.06658,22.17095 -0.30758,8.06005 1.97179,13.86982 4.44634,17.99462 1.6023,2.67087 2.51167,5.64972 2.88372,9.23544 0.93013,8.9643 -1.49794,21.72151 -4.85258,42.94167 -0.89698,5.67399 -1.41832,11.14325 -1.65303,16.35048 -1.40828,31.24339 7.50193,53.05375 7.50193,53.05375 M 158.91747,-5.2431715 c -24.11461,28.7130435 -9.38221,55.9059435 -5.19686,74.0579455 0.68483,3.038971 1.14075,5.833139 1.13086,8.345658 -0.0249,9.10878 2.1097,16.52585 1.78646,24.201328 0.0533,2.97137 0.004,6.06244 -0.36394,9.37608 -1.17308,10.22912 0.88887,14.43639 1.62624,18.28725 0.56064,2.86886 0.58986,5.63217 -1.77814,10.83988 -4.06499,8.81232 -5.75671,16.20895 -6.15824,22.46587 -0.45421,8.17409 1.78913,14.05592 4.22352,18.24809 1.57286,2.68896 2.47078,5.66603 2.82338,9.22889 0.82227,9.31999 -1.76266,21.67844 -5.10377,42.62301 -0.88848,5.5822 -1.40508,10.97853 -1.63429,16.14114 -1.37344,30.66432 7.45573,52.29482 7.42283,52.52779 M 156.80191,-5.2203135 c -23.60945,28.3922265 -8.65107,55.1816525 -4.84876,73.1483215 0.60827,3.021718 1.03477,5.811027 1.03283,8.330445 0.0143,9.234164 2.75936,16.929782 1.7394,24.785027 -0.0429,2.94445 -0.10575,6.07115 -0.44842,9.44492 -1.11017,10.25459 1.05514,14.76719 1.67261,18.77131 0.47833,2.96451 0.51332,5.83288 -1.81428,11.13267 -3.97995,8.80953 -5.67754,16.29198 -6.24992,22.76078 -0.60083,8.28812 1.60647,14.24202 4.00071,18.50157 1.54343,2.70704 2.4299,5.68232 2.76304,9.22233 0.7144,9.67568 -2.02738,21.63537 -5.35496,42.30435 -0.87997,5.49041 -1.39184,10.81382 -1.61554,15.9318 -1.33862,30.08526 7.40953,51.53589 7.34371,52.00184 M 154.68636,-5.1974555 c -23.1043,28.0714095 -7.91994,54.4573605 -4.50066,72.2386965 0.53169,3.004466 0.92877,5.788916 0.9348,8.315233 0.0534,9.359547 3.40902,17.333715 1.69234,25.368726 -0.13899,2.91753 -0.21596,6.07987 -0.53292,9.51377 -1.04724,10.28005 1.22142,15.09797 1.71899,19.25536 0.39602,3.06017 0.43678,6.03359 -1.85043,11.42545 -3.8949,8.80675 -5.59835,16.37502 -6.34158,23.0557 -0.74745,8.40216 1.42381,14.42812 3.77789,18.75504 1.51399,2.72512 2.38901,5.69862 2.7027,9.21578 0.60654,10.03137 -2.2921,21.59231 -5.60614,41.98569 -0.87148,5.39863 -1.37861,10.6491 -1.59681,15.72246 -1.30379,29.5062 7.36333,50.77696 7.26461,51.47588 M 152.5708,-5.1745976 c -22.59914,27.7505926 -7.18879,53.7330696 -4.15256,71.3290716 0.45512,2.987214 0.82279,5.766805 0.83678,8.300021 0.0926,9.48493 4.05867,17.737648 1.64528,25.952425 -0.23512,2.89061 -0.32618,6.08859 -0.61741,9.58261 -0.98433,10.30552 1.38769,15.42877 1.76536,19.73942 0.31371,3.15583 0.36024,6.2343 -1.88658,11.71824 -3.80984,8.80396 -5.51917,16.45805 -6.43324,23.35061 -0.89408,8.51619 1.24114,14.61422 3.55507,19.00851 1.48455,2.74321 2.34812,5.71492 2.64236,9.20923 0.49867,10.38706 -2.55682,21.54924 -5.85733,41.66703 -0.86298,5.30684 -1.36537,10.48439 -1.57806,15.51312 -1.26896,28.92714 7.31712,50.01803 7.18549,50.94992 m 0.77929,-306.2973496 c -22.09399,27.4297756 -6.45766,53.0087786 -3.80447,70.4194476 0.37856,2.969962 0.7168,5.744693 0.73876,8.284808 0.13179,9.610313 4.70832,18.141581 1.59821,26.536124 -0.33124,2.86369 -0.43638,6.0973 -0.7019,9.65145 -0.92141,10.33099 1.55398,15.75957 1.81175,20.22347 0.23139,3.25149 0.2837,6.43502 -1.92273,12.01103 -3.7248,8.80118 -5.43999,16.54108 -6.52491,23.64553 -1.04071,8.63022 1.05848,14.80032 3.33225,19.26199 1.45511,2.76129 2.30724,5.73121 2.58202,9.20267 0.39081,10.74275 -2.82154,21.50617 -6.10852,41.34836 -0.85447,5.21507 -1.35213,10.31968 -1.55932,15.30379 -1.23413,28.34808 7.27092,49.2591 7.10639,50.42397 M 148.3397,-5.1288816 c -21.58884,27.1089596 -5.72653,52.2844876 -3.45637,69.5098226 0.30198,2.95271 0.6108,5.722583 0.64072,8.269595 0.17097,9.735698 5.35798,18.545515 1.55116,27.119819 -0.42736,2.836775 -0.54659,6.106025 -0.78639,9.720295 -0.8585,10.35645 1.72025,16.09036 1.85812,20.70753 0.14908,3.34715 0.20716,6.63573 -1.95888,12.30382 -3.63975,8.79839 -5.36081,16.62411 -6.61657,23.94044 -1.18733,8.74426 0.87581,14.98642 3.10943,19.51546 1.42567,2.77938 2.26635,5.74751 2.52168,9.19612 0.28294,11.09844 -3.08626,21.46311 -6.35971,41.0297 -0.84597,5.12328 -1.33889,10.15497 -1.54057,15.09445 -1.19931,27.76902 7.22472,48.50017 7.02727,49.89801 m 1.89455,-306.2822036 c -21.08368,26.7881426 -4.99538,51.5601956 -3.10827,68.6001976 0.22541,2.935458 0.50482,5.700472 0.5427,8.254383 0.21014,9.861081 6.00763,18.949448 1.5041,27.703518 -0.52349,2.809865 -0.65681,6.114745 -0.87089,9.789145 -0.79558,10.38191 1.88653,16.42115 1.9045,21.19158 0.0668,3.44281 0.13062,6.83644 -1.99503,12.5966 -3.55469,8.79561 -5.28163,16.70715 -6.70823,24.23536 -1.33396,8.85829 0.69315,15.17252 2.88661,19.76893 1.39624,2.79746 2.22546,5.76381 2.46134,9.18957 0.17508,11.45414 -3.35098,21.42004 -6.6109,40.71104 -0.83746,5.0315 -1.32565,9.99026 -1.52182,14.88511 -1.16448,27.18996 7.17851,47.74124 6.94816,49.37206 m 2.45218,-306.2746356 c -20.57853,26.4673256 -4.26425,50.8359046 -2.76018,67.6905736 0.14885,2.918205 0.39883,5.67836 0.44468,8.23917 0.24931,9.986464 6.65728,19.353381 1.45704,28.287216 -0.61962,2.782946 -0.76702,6.123456 -0.95539,9.857986 -0.73265,10.40738 2.05281,16.75195 1.95088,21.67564 -0.0155,3.53846 0.0541,7.03715 -2.03117,12.88939 -3.46965,8.79282 -5.20245,16.79017 -6.79991,24.53027 -1.48058,8.97233 0.51049,15.35863 2.66379,20.0224 1.36681,2.81555 2.18459,5.78011 2.40102,9.18302 0.0672,11.80983 -3.61571,21.37698 -6.86209,40.39238 -0.82897,4.93971 -1.31242,9.82554 -1.50309,14.67578 -1.12965,26.61089 7.13231,46.9823 6.86905,48.84609 m 3.00982,-306.2670576 c -20.07338,26.1465086 -3.53312,50.1116136 -2.41208,66.7809486 0.0723,2.900953 0.29283,5.656249 0.34665,8.223958 0.28848,10.111847 7.30693,19.757313 1.40997,28.870914 -0.71574,2.756027 -0.87723,6.132177 -1.03987,9.926827 -0.66974,10.43285 2.21908,17.08274 1.99725,22.1597 -0.0978,3.63412 -0.0225,7.23786 -2.06732,13.18217 -3.3846,8.79004 -5.12327,16.87321 -6.89157,24.82519 -1.6272,9.08636 0.32783,15.54473 2.44097,20.27588 1.33737,2.83363 2.1437,5.7964 2.34068,9.17646 -0.0407,12.16552 -3.88043,21.33391 -7.11328,40.07372 -0.82046,4.84793 -1.29918,9.66083 -1.48434,14.46644 -1.09483,26.03183 7.08611,46.22337 6.78994,48.32013 m 3.56744,-306.2594796 c -19.56822,25.8256916 -2.80197,49.3873216 -2.06398,65.8713236 -0.004,2.883702 0.18685,5.634139 0.24862,8.208746 0.32766,10.237231 7.95659,20.161246 1.36292,29.454612 -0.81187,2.729108 -0.98744,6.140898 -1.12437,9.995668 -0.60682,10.45832 2.38536,17.41354 2.04363,22.64376 -0.18016,3.72978 -0.099,7.43857 -2.10347,13.47495 -3.29955,8.78726 -5.04408,16.95625 -6.98323,25.12011 -1.77383,9.2004 0.14516,15.73083 2.21815,20.52935 1.30793,2.85172 2.10281,5.8127 2.28034,9.16991 -0.14852,12.52121 -4.14515,21.29084 -7.36447,39.75506 -0.81196,4.75614 -1.28594,9.49611 -1.4656,14.2571 -1.05999,25.45277 7.03991,45.46445 6.71083,47.79418 m 4.12508,-306.2519116 c -19.06307,25.5048756 -2.07084,48.6630306 -1.71589,64.9616996 -0.0809,2.866449 0.0809,5.612027 0.1506,8.193533 0.36683,10.362614 8.60625,20.565179 1.31586,30.038311 -0.908,2.702188 -1.09765,6.149608 -1.20886,10.064508 -0.54391,10.48379 2.55163,17.74434 2.09001,23.12782 -0.26247,3.82543 -0.17554,7.63929 -2.13962,13.76774 -3.2145,8.78447 -4.96491,17.03928 -7.0749,25.41502 -1.92046,9.31443 -0.0375,15.91693 1.99533,20.78282 1.27849,2.8698 2.06193,5.829 2.22,9.16335 -0.25639,12.87691 -4.40987,21.24779 -7.61566,39.43641 -0.80345,4.66435 -1.2727,9.3314 -1.44685,14.04776 -1.02517,24.87371 6.9937,44.70552 6.63172,47.26822 m 4.6827,-306.2443337 c -18.55791,25.1840587 -1.3397,47.9387397 -1.36778,64.0520747 -0.15744,2.849197 -0.0251,5.589916 0.0526,8.178321 0.406,10.487997 9.2559,20.969112 1.2688,30.622009 -1.00412,2.675269 -1.20787,6.158329 -1.29336,10.133359 -0.48099,10.50925 2.71791,18.07513 2.13639,23.61187 -0.34478,3.92109 -0.25208,7.84 -2.17577,14.06052 -3.12945,8.78169 -4.88573,17.12231 -7.16656,25.70994 -2.06708,9.42846 -0.22017,16.10303 1.77251,21.0363 1.24905,2.88788 2.02104,5.84529 2.15966,9.15679 -0.36425,13.2326 -4.67458,21.20472 -7.86685,39.11775 -0.79495,4.57257 -1.25946,9.16668 -1.42811,13.83842 -0.99033,24.29465 6.9475,43.94659 6.55261,46.74226 m 5.24034,-306.2367557 c -18.05277,24.8632417 -0.60856,47.2144477 -1.01969,63.1424507 -0.23401,2.831944 -0.13112,5.567804 -0.0455,8.163108 0.44517,10.613381 9.90555,21.373045 1.22173,31.205707 -1.10024,2.64836 -1.31807,6.16705 -1.37784,10.2022 -0.41807,10.53472 2.88418,18.40592 2.18276,24.09592 -0.42709,4.01675 -0.32862,8.04072 -2.21192,14.35332 -3.0444,8.7789 -4.80654,17.20534 -7.25823,26.00485 -2.2137,9.5425 -0.40282,16.28913 1.5497,21.28977 1.21962,2.90597 1.98016,5.86159 2.09932,9.15024 -0.47211,13.58829 -4.9393,21.16165 -8.11804,38.79908 -0.78645,4.48079 -1.24622,9.00198 -1.40936,13.62909 -0.95551,23.71559 6.9013,43.18766 6.4735,46.21631 m 5.79797,-306.2291877 c -17.54762,24.5424247 0.12257,46.4901567 -0.6716,62.2328257 -0.31057,2.814693 -0.23711,5.545693 -0.14348,8.147896 0.48435,10.738764 10.55521,21.776978 1.17468,31.789405 -1.19637,2.621438 -1.42828,6.175761 -1.46234,10.271041 -0.35515,10.56018 3.05046,18.73672 2.22914,24.57998 -0.5094,4.11241 -0.40516,8.24143 -2.24806,14.6461 -2.95935,8.77612 -4.72737,17.28838 -7.3499,26.29977 -2.36033,9.65653 -0.58549,16.47523 1.32688,21.54324 1.19018,2.92406 1.93927,5.87789 2.03898,9.14369 -0.57998,13.94398 -5.20402,21.11859 -8.36922,38.48042 -0.77795,4.38901 -1.23299,8.83727 -1.39063,13.41975 -0.92068,23.13653 6.8551,42.42873 6.39439,45.69035 m 6.3556,-306.2216097 c -17.04246,24.2216077 0.85372,45.7658657 -0.32349,61.3232007 -0.38715,2.797441 -0.34311,5.523583 -0.24151,8.132684 0.52352,10.864147 11.20486,22.180911 1.12762,32.373104 -1.2925,2.594519 -1.5385,6.184481 -1.54684,10.339881 -0.29223,10.58565 3.21674,19.06752 2.27552,25.06404 -0.59171,4.20807 -0.4817,8.44214 -2.28421,14.93889 -2.8743,8.77333 -4.64818,17.3714 -7.44156,26.59468 -2.50695,9.77057 -0.76815,16.66133 1.10406,21.79672 1.16074,2.94213 1.89838,5.89418 1.97864,9.13713 -0.68784,14.29967 -5.46874,21.07552 -8.62041,38.16176 -0.76945,4.29722 -1.21975,8.67255 -1.37188,13.21041 -0.88585,22.55747 6.80889,41.6698 6.31528,45.16439 m 6.91323,-306.2140317 c -16.53731,23.9007907 1.58485,45.0415737 0.0246,60.4135767 -0.46371,2.780188 -0.44909,5.501471 -0.33953,8.11747 0.56269,10.989531 11.85451,22.584845 1.08055,32.956803 -1.38862,2.567602 -1.6487,6.193192 -1.63132,10.408732 -0.22932,10.61111 3.38301,19.3983 2.32189,25.54809 -0.67402,4.30372 -0.55823,8.64285 -2.32035,15.23167 -2.78926,8.77055 -4.56901,17.45444 -7.53323,26.8896 -2.65358,9.8846 -0.95082,16.84743 0.88124,22.05019 1.1313,2.96022 1.8575,5.91048 1.9183,9.13058 -0.79571,14.65536 -5.73346,21.03245 -8.8716,37.8431 -0.76094,4.20544 -1.20651,8.50784 -1.35314,13.00107 -0.85102,21.97841 6.7627,40.91087 6.23617,44.63844 m 7.47087,-306.2064637 c -16.03216,23.5799747 2.31598,44.3172827 0.37269,59.5039517 -0.54028,2.762936 -0.55508,5.47936 -0.43755,8.102258 0.60186,11.114915 12.50416,22.988777 1.03349,33.540501 -1.48475,2.540685 -1.75892,6.201913 -1.71582,10.477573 -0.16639,10.63658 3.54929,19.7291 2.36828,26.03215 -0.75634,4.39938 -0.63478,8.84356 -2.35651,15.52446 -2.7042,8.76776 -4.48983,17.53747 -7.62489,27.18451 -2.80021,9.99864 -1.13348,17.03353 0.65842,22.30366 1.10186,2.97831 1.81661,5.92678 1.85796,9.12403 -0.90357,15.01105 -5.99818,20.98939 -9.12279,37.52444 -0.75244,4.11365 -1.19327,8.34312 -1.33439,12.79174 -0.8162,21.39934 6.71649,40.15193 6.15706,44.11247 m 8.02849,-306.1988857 c -15.527,23.2591577 3.04713,43.5929917 0.72079,58.5943267 -0.61685,2.745684 -0.66106,5.457249 -0.53558,8.087046 0.64104,11.240298 13.15383,23.39271 0.98644,34.124199 -1.58088,2.513767 -1.86913,6.210634 -1.80031,10.546414 -0.10348,10.66205 3.71556,20.0599 2.41465,26.51621 -0.83865,4.49504 -0.71132,9.04427 -2.39266,15.81724 -2.61915,8.76499 -4.41064,17.62051 -7.71656,27.47943 -2.94682,10.11267 -1.31614,17.21963 0.43561,22.55714 1.07243,2.99639 1.77572,5.94307 1.79762,9.11747 -1.01144,15.36674 -6.2629,20.94632 -9.37398,37.20578 -0.74393,4.02186 -1.18003,8.17841 -1.31565,12.5824 -0.78136,20.82028 6.67029,39.393 6.07795,43.58651 M 120.8375,-4.8317277 c -15.02185,22.9383407 3.77826,42.8686997 1.06889,57.6847027 -0.69342,2.728432 -0.76706,5.435137 -0.63361,8.071833 0.68021,11.365681 13.80348,23.796643 0.93938,34.707897 -1.677,2.48685 -1.97934,6.219345 -1.88481,10.615255 -0.0406,10.68752 3.88184,20.39069 2.46103,27.00027 -0.92096,4.59069 -0.78786,9.24498 -2.4288,16.11003 -2.53411,8.7622 -4.33147,17.70353 -7.80823,27.77434 -3.09345,10.2267 -1.4988,17.40573 0.21279,22.81061 1.04299,3.01447 1.73484,5.95937 1.73728,9.11092 -1.1193,15.72243 -6.52762,20.90326 -9.62516,36.88712 -0.73544,3.93008 -1.1668,8.01369 -1.29691,12.37306 -0.74654,20.24122 6.62408,38.63407 5.99884,43.06056 m 9.14375,-306.1837398 c -14.51669,22.6175238 4.5094,42.1444088 1.41699,56.7750778 -0.76999,2.71118 -0.87305,5.413027 -0.73163,8.056621 0.71938,11.491064 14.45313,24.200576 0.89231,35.291596 -1.77312,2.459931 -2.08955,6.228065 -1.96929,10.684095 0.0224,10.71299 4.04811,20.72149 2.5074,27.48432 -1.00327,4.68636 -0.8644,9.4457 -2.46495,16.40282 -2.44906,8.75942 -4.25228,17.78657 -7.89989,28.06926 -3.24008,10.34074 -1.68147,17.59183 -0.01,23.06408 1.01355,3.03256 1.69395,5.97567 1.67694,9.10437 -1.22716,16.07812 -6.79234,20.86019 -9.87635,36.56846 -0.72693,3.83829 -1.15356,7.84898 -1.27816,12.16372 -0.71172,19.66216 6.57788,37.87514 5.91973,42.5346 m 9.70138,-306.1761618 c -14.01154,22.2967068 5.24054,41.4201178 1.76508,55.8654528 -0.84656,2.693928 -0.97903,5.390916 -0.82965,8.041409 0.75855,11.616448 15.10278,24.604509 0.84525,35.875294 -1.86925,2.433014 -2.19976,6.236786 -2.05379,10.752946 0.0853,10.73845 4.21439,21.05228 2.55378,27.96837 -1.08558,4.78202 -0.94094,9.64641 -2.5011,16.6956 -2.364,8.75664 -4.1731,17.86961 -7.99155,28.36418 -3.3867,10.45477 -1.86413,17.77793 -0.23285,23.31755 0.98411,3.05065 1.65307,5.99197 1.6166,9.09782 -1.33503,16.43381 -7.05706,20.81712 -10.12754,36.24979 -0.71843,3.74652 -1.140318,7.68428 -1.259419,11.95439 -0.676885,19.0831 6.531679,37.11621 5.840619,42.00865 M 114.49084,-4.7631538 c -13.50639,21.9758908 5.97167,40.6958258 2.11318,54.9558288 -0.92313,2.676675 -1.08503,5.368804 -0.92769,8.026196 0.79773,11.741831 15.75244,25.008442 0.7982,36.458992 -1.96538,2.406096 -2.30998,6.245497 -2.13829,10.821787 0.1482,10.76391 4.38068,21.38307 2.60016,28.45243 -1.16788,4.87767 -1.01747,9.84712 -2.53724,16.98839 -2.27896,8.75385 -4.09393,17.95263 -8.08322,28.65909 -3.53333,10.56881 -2.0468,17.96403 -0.45567,23.57103 0.95467,3.06873 1.61218,6.00826 1.55626,9.09125 -1.44289,16.78952 -7.32178,20.77407 -10.378728,35.93114 -0.709928,3.65473 -1.12708,7.51956 -1.240676,11.74505 -0.642057,18.50404 6.485474,36.35728 5.761514,41.48269 M 112.37528,-4.7402958 c -13.001232,21.6550738 6.70281,39.9715348 2.46128,54.0462038 -0.9997,2.659424 -1.19102,5.346693 -1.02571,8.010984 0.8369,11.867214 16.40209,25.412375 0.75113,37.04269 -2.0615,2.379179 -2.42018,6.254218 -2.22277,10.890628 0.21111,10.78938 4.54695,21.71387 2.64653,28.93649 -1.25019,4.97333 -1.09401,10.04783 -2.57339,17.28117 -2.19391,8.75107 -4.01474,18.03567 -8.17489,28.95401 -3.67995,10.68284 -2.22945,18.15014 -0.67849,23.8245 0.92524,3.08681 1.5713,6.02456 1.49594,9.0847 -1.55077,17.14521 -7.586505,20.731 -10.629927,35.61248 -0.701425,3.56295 -1.113841,7.35485 -1.221932,11.53571 -0.607228,17.92498 6.439274,35.59835 5.6824,40.95673 M 110.25973,-4.7174378 c -12.496082,21.3342568 7.43395,39.2472438 2.80937,53.1365798 -1.07627,2.642171 -1.297,5.324581 -1.12373,7.995771 0.87607,11.992597 17.05174,25.816307 0.70407,37.626389 -2.15763,2.352261 -2.53039,6.262938 -2.30727,10.959468 0.27403,10.81485 4.71323,22.04467 2.69292,29.42055 -1.33251,5.06899 -1.17056,10.24854 -2.60955,17.57396 -2.10885,8.74828 -3.93556,18.1187 -8.26655,29.24892 -3.826573,10.79688 -2.412119,18.33624 -0.90131,24.07797 0.89581,3.1049 1.53042,6.04086 1.4356,9.07815 -1.65863,17.5009 -7.851224,20.68793 -10.881115,35.29382 -0.692922,3.47116 -1.100602,7.19013 -1.203188,11.32637 -0.572401,17.34592 6.393071,34.83942 5.603289,40.43078 M 108.14418,-4.6945798 c -11.990933,21.0134398 8.16508,38.5229518 3.15747,52.2269548 -1.15284,2.624919 -1.403,5.302471 -1.22176,7.980559 0.91524,12.117981 17.70139,26.22024 0.65701,38.210087 -2.25375,2.325343 -2.64061,6.271653 -2.39176,11.028319 0.33694,10.84031 4.8795,22.37546 2.73929,29.9046 -1.41482,5.16464 -1.2471,10.44925 -2.64569,17.86674 -2.02381,8.7455 -3.85638,18.20174 -8.35822,29.54384 -3.9732,10.91091 -2.594784,18.52234 -1.124126,24.33145 0.866364,3.12298 1.489526,6.05715 1.375256,9.07159 -1.766495,17.85659 -8.115944,20.64487 -11.132303,34.97516 -0.68442,3.37937 -1.087364,7.02542 -1.184445,11.11703 -0.537573,16.76686 6.346869,34.08049 5.524179,39.90482 M 106.02862,-4.6717218 c -11.485774,20.6926228 8.89622,37.7986608 3.50557,51.3173298 -1.22941,2.607667 -1.50899,5.28036 -1.31979,7.965346 0.95442,12.243365 18.35106,26.624174 0.60996,38.793786 -2.34988,2.298426 -2.75082,6.28037 -2.47626,11.09716 0.39986,10.86578 5.04578,22.70625 2.78567,30.38866 -1.49713,5.2603 -1.32364,10.64997 -2.68184,18.15953 -1.93876,8.74271 -3.7772,18.28476 -8.449881,29.83874 -4.119826,11.02495 -2.777448,18.70845 -1.346946,24.58493 0.836927,3.14107 1.448641,6.07345 1.314914,9.06504 -1.874356,18.21228 -8.38066,20.6018 -11.383488,34.6565 -0.675917,3.28759 -1.074126,6.86071 -1.165702,10.9077 -0.502744,16.18779 6.300666,33.32155 5.44507,39.37885 M 103.91307,-4.6488638 c -10.980624,20.3718068 9.62736,37.0743698 3.85366,50.4077058 -1.30597,2.590414 -1.61497,5.258248 -1.41781,7.950133 0.99359,12.368748 19.00071,27.028107 0.56289,39.377484 -2.446,2.271508 -2.86102,6.289088 -2.56074,11.166001 0.46278,10.89125 5.21205,23.03705 2.83204,30.87272 -1.57944,5.35596 -1.40018,10.85068 -2.71799,18.45231 -1.8537,8.73993 -3.69802,18.3678 -8.541543,30.13366 -4.26645,11.13899 -2.960111,18.89455 -1.569765,24.8384 0.80749,3.15915 1.407755,6.08975 1.254576,9.05849 -1.982221,18.56797 -8.64538,20.55874 -11.634677,34.33784 -0.667415,3.1958 -1.060888,6.69599 -1.146958,10.69836 -0.467917,15.60873 6.254463,32.56262 5.365959,38.8529 M 101.79751,-4.6260059 c -10.475465,20.0509899 10.3585,36.3500789 4.20177,49.4980809 -1.38255,2.573163 -1.72097,5.236137 -1.51584,7.934921 1.03276,12.494131 19.65036,27.43204 0.51583,39.961182 -2.54213,2.244591 -2.97124,6.297805 -2.64524,11.234842 0.5257,10.91672 5.37833,23.36785 2.87842,31.35677 -1.66175,5.45162 -1.47671,11.0514 -2.75413,18.74511 -1.76866,8.73714 -3.618841,18.45083 -8.633215,30.42857 -4.413075,11.25302 -3.142774,19.08065 -1.792583,25.09188 0.778051,3.17723 1.366869,6.10604 1.194237,9.05193 -2.090087,18.92366 -8.9101,20.51567 -11.885866,34.01918 -0.658913,3.10402 -1.04765,6.53128 -1.128215,10.48902 -0.433088,15.02967 6.208261,31.80369 5.286849,38.32694 M 99.68196,-4.6031479 c -9.970316,19.7301729 11.08963,35.6257869 4.54986,48.5884559 -1.45912,2.555911 -1.82696,5.214026 -1.61386,7.919709 1.07193,12.619515 20.30001,27.835973 0.46877,40.544881 -2.63826,2.217672 -3.08145,6.306522 -2.72974,11.303682 0.58862,10.94219 5.54461,23.69864 2.9248,31.84083 -1.74406,5.54728 -1.55325,11.25211 -2.79028,19.03789 -1.683608,8.73436 -3.539657,18.53386 -8.724877,30.72349 -4.5597,11.36706 -3.325437,19.26675 -2.015402,25.34535 0.748614,3.19532 1.325984,6.12234 1.133898,9.04538 -2.197951,19.27935 -9.174819,20.4726 -12.137054,33.70052 -0.65041,3.01223 -1.034412,6.36656 -1.109472,10.27968 -0.39826,14.45061 6.162059,31.04476 5.207739,37.80098 M 97.566406,-4.5802899 c -9.465162,19.4093559 11.820774,34.9014959 4.897954,47.6788319 -1.53568,2.538658 -1.93294,5.191915 -1.71189,7.904496 1.11111,12.744898 20.94967,28.239906 0.42171,41.128579 -2.734377,2.190755 -3.191656,6.315239 -2.814222,11.372533 0.651534,10.96764 5.710882,24.02943 2.971182,32.32488 -1.826378,5.64294 -1.6298,11.45282 -2.826437,19.33067 -1.598558,8.73158 -3.460476,18.6169 -8.816542,31.01841 -4.706324,11.48109 -3.5081,19.45285 -2.238221,25.59882 0.719177,3.21341 1.285098,6.13864 1.07356,9.03883 -2.305816,19.63504 -9.439539,20.42954 -12.388243,33.38185 -0.641908,2.92046 -1.021174,6.20186 -1.090728,10.07035 -0.363433,13.87155 6.115856,30.28584 5.128629,37.27503 M 95.450852,-4.5574319 c -8.960009,19.0885389 12.551908,34.1772049 5.246058,46.7692069 -1.61226,2.521406 -2.038938,5.169804 -1.809918,7.889284 1.150278,12.870281 21.599318,28.643838 0.37465,41.712277 -2.830507,2.163837 -3.301872,6.323957 -2.898719,11.441374 0.714451,10.99311 5.877157,24.36023 3.017555,32.80894 -1.908685,5.73859 -1.706336,11.65353 -2.862581,19.62346 -1.513509,8.72879 -3.381296,18.69993 -8.908208,31.31332 -4.852949,11.59513 -3.690763,19.63895 -2.461039,25.8523 0.689739,3.23148 1.244212,6.15493 1.013221,9.03227 -2.413681,19.99073 -9.70426,20.38647 -12.639432,33.06319 -0.633405,2.82867 -1.007936,6.03714 -1.071985,9.86101 -0.328604,13.29249 6.069653,29.52691 5.049519,36.74907 M 93.335299,-4.5345739 c -8.454857,18.7677229 13.283051,33.4529129 5.594149,45.8595819 -1.688825,2.504155 -2.144922,5.147693 -1.907938,7.874072 1.189449,12.995664 22.24897,29.047771 0.327589,42.295975 -2.926632,2.13692 -3.412083,6.332674 -2.983212,11.510215 0.777369,11.01858 6.043433,24.69102 3.063933,33.293 -1.990996,5.83425 -1.782876,11.85424 -2.89873,19.91624 -1.428459,8.72601 -3.302115,18.78297 -8.999873,31.60824 -4.999574,11.70916 -3.873426,19.82505 -2.683858,26.10577 0.660302,3.24957 1.203327,6.17123 0.952882,9.02572 -2.521546,20.34642 -9.968979,20.3434 -12.89062,32.74453 -0.624903,2.73689 -0.994698,5.87243 -1.053241,9.65167 -0.293777,12.71343 6.02345,28.76798 4.970408,36.22311 M 91.219745,-4.5117159 C 83.270042,13.93519 105.23393,28.216906 97.161991,40.438242 c -1.765394,2.486902 -2.250912,5.125581 -2.005964,7.858859 1.228622,13.121048 22.898633,29.451704 0.280529,42.879674 -3.022758,2.110002 -3.522293,6.341391 -3.067705,11.579055 0.840288,11.04405 6.209711,25.02182 3.11031,33.77706 -2.073306,5.92991 -1.859416,12.05495 -2.934877,20.20903 -1.34341,8.72322 -3.222935,18.86599 -9.091539,31.90315 -5.146198,11.82319 -4.056089,20.01115 -2.906677,26.35924 0.630864,3.26766 1.162442,6.18753 0.892544,9.01917 -2.629411,20.70211 -10.233699,20.30034 -13.14181,32.42587 -0.6164,2.6451 -0.981459,5.70772 -1.034497,9.44233 -0.258948,12.13437 5.977248,28.00905 4.891298,35.69716 M 89.104191,-4.4888579 c -7.44455,18.1260889 14.745319,32.0043309 6.290343,44.0403329 -1.841964,2.46965 -2.356901,5.103471 -2.103989,7.843647 1.267794,13.246431 23.548285,29.855637 0.233468,43.463372 -3.118883,2.083084 -3.632504,6.350108 -3.152198,11.647906 0.903206,11.06951 6.375987,25.35261 3.156688,34.26111 -2.155617,6.02556 -1.935956,12.25566 -2.971026,20.50181 -1.25836,8.72044 -3.143754,18.94903 -9.183203,32.19807 -5.292824,11.93723 -4.238753,20.19725 -3.129496,26.61271 0.601426,3.28574 1.121555,6.20384 0.832205,9.01261 -2.737276,21.05781 -10.498419,20.25728 -13.392999,32.10722 -0.607897,2.55331 -0.968221,5.543 -1.015754,9.23299 -0.22412,11.55531 5.931046,27.25012 4.812189,35.1712 M 86.988637,-4.4659999 C 80.049241,13.339272 102.4651,26.814039 93.627078,38.664709 c -1.918534,2.452397 -2.462892,5.081359 -2.202016,7.828434 1.306967,13.371814 24.197938,30.25957 0.186408,44.04707 -3.215009,2.056167 -3.742715,6.358826 -3.23669,11.716747 0.966123,11.09498 6.542263,25.68341 3.203064,34.74517 -2.237927,6.12122 -2.012495,12.45637 -3.007174,20.7946 -1.17331,8.71765 -3.064573,19.03206 -9.274868,32.49298 -5.439449,12.05126 -4.421416,20.38335 -3.352315,26.86619 0.571989,3.30382 1.08067,6.22013 0.771866,9.00605 -2.84514,21.4135 -10.763138,20.21422 -13.644187,31.78856 -0.599395,2.46153 -0.954983,5.37829 -0.99701,9.02366 -0.189293,10.97624 5.884843,26.49118 4.733078,34.64524 M 84.873083,-4.443142 c -6.434243,17.484455 16.207597,30.555748 6.986538,42.221084 -1.995103,2.435145 -2.568881,5.059248 -2.300041,7.813221 1.346139,13.497199 24.84759,30.663504 0.139347,44.630769 -3.311134,2.029249 -3.852926,6.367543 -3.321183,11.785588 1.029041,11.12045 6.708539,26.0142 3.249442,35.22922 -2.320238,6.21689 -2.089035,12.65709 -3.043322,21.08739 -1.088261,8.71487 -2.985393,19.11509 -9.366534,32.7879 -5.586073,12.1653 -4.604079,20.56945 -3.575134,27.11966 0.542552,3.32191 1.039785,6.23643 0.711528,8.9995 -2.953005,21.76919 -11.027859,20.17115 -13.895376,31.4699 -0.590892,2.36974 -0.941744,5.21357 -0.978267,8.81432 -0.154464,10.39718 5.838641,25.73225 4.653968,34.11928 M 82.75753,-4.420284 c -5.929091,17.163639 16.938733,29.831457 7.334634,41.311459 -2.071673,2.417894 -2.674871,5.037137 -2.398067,7.798009 1.385313,13.622582 25.497243,31.067437 0.09229,45.214468 -3.40726,2.002331 -3.963138,6.37626 -3.405677,11.854428 1.091959,11.14591 6.874816,26.345 3.29582,35.71328 -2.402549,6.31254 -2.165576,12.8578 -3.079471,21.38018 -1.003211,8.71208 -2.906212,19.19812 -9.458199,33.08281 -5.732698,12.27933 -4.786742,20.75555 -3.797952,27.37313 0.513114,3.34 0.998898,6.25273 0.651189,8.99295 -3.060871,22.12489 -11.292579,20.12808 -14.146565,31.15124 -0.58239,2.27796 -0.928506,5.04886 -0.959524,8.60498 -0.119636,9.81812 5.792438,24.97332 4.574858,33.59332 M 80.641976,-4.397426 c -5.423937,16.842822 17.66987,29.107165 7.682731,40.401835 -2.148242,2.400641 -2.78086,5.015025 -2.496092,7.782796 1.424485,13.747965 26.146895,31.471369 0.04523,45.798166 -3.503386,1.975413 -4.073348,6.384977 -3.490169,11.923279 1.154876,11.17137 7.041091,26.67579 3.342196,36.19733 -2.484859,6.4082 -2.242115,13.05851 -3.115618,21.67296 -0.918162,8.7093 -2.827032,19.28116 -9.549865,33.37773 -5.879323,12.39337 -4.969405,20.94165 -4.020771,27.62661 0.483676,3.35807 0.958013,6.26902 0.59085,8.98639 -3.168735,22.48058 -11.557298,20.08502 -14.397753,30.83257 -0.573887,2.18618 -0.915268,4.88415 -0.94078,8.39565 -0.08481,9.23906 5.746235,24.21439 4.495748,33.06737 M 78.526422,-4.374568 c -4.918784,16.522005 18.401008,28.382874 8.030828,39.49221 -2.224811,2.383389 -2.886849,4.992915 -2.594118,7.767584 1.463658,13.873348 26.796548,31.875302 -0.0018,46.381864 -3.599511,1.948496 -4.183559,6.393695 -3.574662,11.99212 1.217794,11.19684 7.207368,27.00658 3.388574,36.68139 -2.567171,6.50385 -2.318655,13.25922 -3.151767,21.96574 -0.833112,8.70652 -2.747851,19.36419 -9.64153,33.67265 -6.025947,12.5074 -5.152068,21.12776 -4.24359,27.88008 0.454239,3.37616 0.917128,6.28532 0.530512,8.97984 -3.2766,22.83627 -11.822018,20.04195 -14.648942,30.51391 -0.565385,2.0944 -0.90203,4.71944 -0.922037,8.18631 -0.04998,8.66 5.700033,23.45546 4.416638,32.54141"
       inkscape:path-effect="#path-effect1945"
       inkscape:original-d="m 161.03302,-5.2660295 c -28.72305,33.8728365 -4.19104,65.7890965 -4.31607,83.3284405 -0.0897,12.576756 2.93346,21.537552 1.55408,32.924869 -2.163,17.85639 5.45744,16.41379 -0.16213,28.35029 -9.68344,20.56856 -5.9507,32.94717 -1.62024,40.16557 5.60806,9.34805 2.72763,22.46888 -1.96886,52.17711 -6.27888,39.7179 5.8489,69.40423 5.8489,69.40423 M 78.526422,-4.374568 c -4.918784,16.522005 18.401008,28.382874 8.030828,39.49221 -13.348869,14.300335 29.56211,36.741574 -2.595951,54.149448 -10.798534,5.845488 5.542103,34.1613 -0.186088,48.67351 -5.134341,13.00771 0.994062,27.02148 -12.793297,55.63839 -9.038921,18.7611 -2.553231,28.77635 -3.713078,36.85992 -3.93192,27.40352 -15.450938,17.899 -15.570979,38.70022 -0.04998,8.66 5.700033,23.45546 4.416638,32.54141"
       sodipodi:nodetypes="csssssccssssssc" />
  </g>
</svg>
